<?xml version="1.0" ?><svg height="1024" preserveAspectRatio="xMidYMid meet" width="1024" xmlns="http://www.w3.org/2000/svg"><g><title/><rect fill="none" height="1026" id="canvas_background" width="1026" x="-1" y="-1"/></g><g><title/><g fill="#000000" id="svg_1" transform="translate(0,1024) scale(0.10000000149011612,-0.10000000149011612) "><path d="m4919,9447c-2,-3 -54,-7 -116,-11c-61,-4 -119,-8 -130,-10c-10,-2 -49,-7 -88,-11c-38,-4 -117,-15 -175,-26c-58,-10 -118,-21 -135,-24c-196,-34 -606,-159 -800,-243c-49,-22 -115,-50 -145,-63c-201,-87 -504,-263 -732,-426c-88,-63 -230,-173 -243,-187c-5,-6 -37,-33 -70,-61c-78,-64 -366,-352 -430,-430c-28,-33 -55,-64 -61,-70c-6,-5 -33,-39 -60,-75c-27,-36 -52,-67 -55,-70c-11,-10 -88,-119 -147,-206c-116,-175 -251,-406 -305,-524c-14,-30 -39,-86 -57,-125c-119,-261 -247,-659 -295,-920c-3,-16 -12,-66 -21,-110c-40,-216 -59,-459 -59,-745c0,-286 19,-529 59,-745c9,-44 18,-93 21,-110c48,-261 176,-659 295,-920c18,-38 43,-95 57,-125c67,-146 228,-414 374,-625c45,-65 176,-234 193,-250c6,-5 33,-37 61,-70c75,-91 326,-343 413,-416c42,-35 82,-69 87,-75c16,-17 183,-146 250,-193c423,-297 823,-492 1300,-634c83,-25 164,-48 180,-51c17,-3 80,-16 140,-30c61,-13 162,-32 225,-41c63,-9 126,-18 140,-20c253,-39 846,-40 1080,-1c14,3 48,7 75,11c80,9 172,26 290,52c61,13 121,26 135,29c105,21 564,170 595,193c6,4 40,19 76,34c201,79 575,285 746,411c23,17 58,42 78,56c229,159 546,448 750,684c50,58 117,144 233,296c41,54 182,270 235,360c123,212 246,475 329,705c41,114 122,378 132,430c3,17 16,80 30,140c13,61 32,162 41,225c9,63 18,126 20,140c39,225 39,855 0,1080c-2,14 -11,77 -20,140c-9,63 -28,164 -41,225c-14,60 -27,123 -30,140c-10,52 -91,316 -132,430c-271,753 -773,1447 -1407,1941c-49,38 -103,79 -119,89c-16,11 -41,29 -56,40c-137,102 -457,292 -600,358c-278,127 -318,143 -545,218c-138,46 -412,120 -495,134c-187,32 -339,54 -410,60c-47,4 -94,9 -105,12c-26,5 -550,15 -556,10zm-1587,-2027c1051,-71 1960,-453 2721,-1145c644,-585 1075,-1232 1323,-1984c117,-355 196,-795 209,-1161c3,-80 8,-178 10,-217l5,-73l-360,0l-360,0l-4,23c-3,12 -7,99 -10,192c-17,549 -170,1116 -433,1599c-399,733 -1074,1371 -1802,1701c-443,202 -872,305 -1386,335c-93,5 -185,10 -202,10l-33,0l0,365l0,365l84,0c47,0 153,-5 238,-10zm73,-1446c573,-61 1106,-281 1570,-648c129,-102 418,-391 526,-526c263,-328 469,-733 569,-1115c61,-238 100,-516 100,-727l0,-118l-358,0l-359,0l-6,148c-14,327 -86,609 -232,909c-117,238 -250,425 -450,632c-351,363 -772,600 -1235,695c-114,23 -220,36 -442,52l-78,6l0,359l0,360l128,-6c70,-3 190,-13 267,-21zm480,-1784c129,-33 258,-118 351,-231c205,-250 206,-615 4,-859c-139,-166 -320,-252 -534,-252c-175,0 -304,44 -435,148c-114,91 -192,203 -233,334c-33,107 -33,283 0,390c72,231 269,419 497,476c82,20 259,17 350,-6z" fill="#ff6600" id="svg_2"/></g></g></svg>